# xmcd CD database file
#
# Track frame offsets:
#	150
#	11610
#	24405
#	36424
#	55436
#	68144
#	78082
#	97926
#	109743
#	128036
#	143177
#	155248
#	175520
#
# Disc length: 2524 seconds
#
# Revision: 0
# Processed by: cddbd v1.5.1PL0 Copyright (c) Steve Scherf et al.
# Submitted via: CDex 1.51
#
DISCID=a409da0d
DTITLE=Gunsmoke - XXL
DYEAR=1998
DGENRE=Country
TTITLE0=Tennesee Dreaming
TTITLE1=Slide
TTITLE2=Dancing Girl
TTITLE3=Loving You
TTITLE4=Back In The Doghouse
TTITLE5=Time
TTITLE6=Cowboy Meets Girl
TTITLE7=Ready Willing And Able
TTITLE8=This Is Your Heart
TTITLE9=Crazy Eyes
TTITLE10=The Hangdog Look
TTITLE11=Colours Of Love
TTITLE12=Hog Boogie
EXTD=YEAR: 1998
EXTT0=
EXTT1=
EXTT2=
EXTT3=
EXTT4=
EXTT5=
EXTT6=
EXTT7=
EXTT8=
EXTT9=
EXTT10=
EXTT11=
EXTT12=
PLAYORDER=
